<svg width="168" height="168" viewBox="0 0 168 168" fill="none" xmlns="http://www.w3.org/2000/svg">
<path d="M120.196 65.4055C118.359 66.7443 118.359 66.7443 118.305 69.6246C119.315 68.9852 120.238 68.3144 121.236 67.7862C123.579 66.5472 125.961 65.3831 128.319 64.1736C128.916 63.8674 129.472 63.4805 130.071 63.1793C130.326 63.0509 130.587 62.5588 130.908 62.9659C131.156 63.2794 130.834 63.5993 130.64 63.8619C129.681 65.1643 128.32 65.9502 126.942 66.7137C124.724 67.943 122.33 68.8217 120.178 70.1994C118.854 71.0472 117.854 71.9112 118.328 73.6681C118.409 73.9665 118.309 74.3138 118.284 74.8012C120.843 72.352 123.886 71.0984 127.077 70.1331C127.601 69.9744 128.388 69.6418 128.602 70.1672C128.883 70.8549 128.003 71.0605 127.512 71.305C125.079 72.5161 122.464 73.3562 120.278 75.0674C118.99 76.075 117.781 77.0208 118.321 78.9279C118.384 79.1495 118.24 79.4294 118.162 79.8427C119.918 78.3323 121.663 77.058 123.937 76.5923C124.176 76.5413 124.345 76.5354 124.597 76.5063C125.092 76.6397 125.648 76.7097 125.609 77.2887C125.576 77.791 125.007 77.8067 124.662 77.9268C123.139 78.4576 121.715 79.162 120.318 79.9724C118.683 80.9204 117.799 82.1372 118.271 84.1692C118.398 84.2941 118.168 84.4996 118.456 84.5056C120.298 82.8137 122.368 81.5957 124.751 80.9192C125.023 80.842 125.356 80.6177 125.524 81.01C125.647 81.2975 125.351 81.4824 125.149 81.6281C124.695 81.9544 124.223 82.2551 123.751 82.5561C122.965 83.058 122.162 83.5348 121.387 84.0525C119.2 85.5116 117.401 87.1759 118.433 90.203C118.965 89.5861 119.514 88.8459 120.355 88.3045C120.519 89.0972 121.358 88.7413 121.746 89.1733C121.691 89.3045 121.648 89.3718 121.587 89.411C119.061 91.0323 117.589 93.1463 118.278 96.3191C118.377 96.7755 118.291 97.2719 118.291 98.0478C119.557 95.7712 121.143 94.3028 123.557 93.91C121.179 96.0213 119.386 98.5365 118.044 101.482C117.172 99.627 116.376 97.8555 116.548 95.8403C116.645 94.715 116.246 93.8571 115.503 93.0147C114.664 92.064 113.633 91.1518 113.672 89.5785C114.876 89.9499 115.606 90.8304 116.496 91.6931C116.496 90.304 116.512 89.0224 116.489 87.7414C116.479 87.2181 116.086 86.884 115.748 86.5354C114.255 84.997 112.384 83.935 110.758 82.5664C110.299 82.1803 109.634 81.8965 109.797 81.0424C110.705 80.5645 111.27 80.9914 111.808 81.724C113.5 82.7459 115.027 83.8525 116.557 85.1599C116.557 84.2391 116.558 83.3672 116.556 82.4953C116.555 82.0425 116.274 81.7712 115.961 81.4822C114.403 80.042 112.573 79.0681 110.624 78.2858C110.246 78.1342 109.874 77.9667 109.506 77.7925C109.214 77.6542 109.017 77.4407 109.103 77.0853C109.193 76.7119 109.505 76.6776 109.807 76.6736C110.291 76.6672 110.779 76.6561 111.326 76.8713C111.507 76.8162 111.607 76.7727 111.795 76.7443C113.516 77.1542 114.736 78.2978 116.155 79.1706C116.445 77.7981 116.057 76.717 114.842 75.9456C114.498 75.7271 114.161 75.4862 113.828 75.1235C113.769 75.0082 113.754 74.9577 113.794 74.8499C112.185 73.4094 110.144 72.7277 108.249 71.775C107.651 71.4743 107.063 71.1531 106.48 70.8242C106.238 70.688 106.081 70.4683 106.175 70.172C106.276 69.8505 106.56 69.8325 106.822 69.8816C107.259 69.9637 107.702 70.0491 108.12 70.1974C111.119 71.2623 113.949 72.649 116.538 74.8413C116.538 73.8524 116.523 73.0473 116.543 72.2432C116.555 71.7624 116.266 71.5266 115.931 71.2584C114.197 69.8703 112.252 68.856 110.259 67.9011C108.445 67.0316 106.588 66.2074 105.132 64.7478C104.659 64.2735 104.167 63.8067 103.94 62.7747C108.188 65.2013 112.545 66.9272 116.384 69.6397C116.947 67.7143 116.674 66.8953 115.012 65.7963C112.273 63.986 109.774 61.9458 108.137 59.0193C107.365 57.6386 106.826 56.1815 106.596 54.5321C107.411 54.3948 107.462 55.0985 107.559 55.5602C107.856 56.965 108.654 58.0615 109.466 59.1855C109.851 59.7191 109.895 59.1582 110.168 59.0711C110.833 59.0297 111.06 59.5027 111.343 59.8841C112.65 61.6466 114.446 62.8824 116.082 64.4265C116.462 63.6717 116.511 62.6804 117.571 62.7865C118.396 62.8691 118.367 63.6554 118.586 64.2837C119.194 64.0674 119.568 63.4491 120.301 63.3917C120.82 63.7856 120.864 64.1886 120.432 64.6021C120.218 64.8067 119.981 64.9902 120.196 65.4055Z" fill="#F1EEE3"/>
<path d="M133.911 53.212C134.259 53.0928 134.526 53.2131 134.804 53.4823C134.838 53.6462 134.831 53.7464 134.834 53.9211C133.434 57.8051 128.975 62.351 126.72 62.2337C129.694 59.6959 132.024 56.6769 133.911 53.212Z" fill="#EEEAE0"/>
<path d="M120.378 117.647C122.29 119.326 124.203 121.013 125.537 123.219C129.733 130.159 129.576 137.276 125.904 144.273C121.608 152.461 114.623 157.164 105.571 158.738C99.8252 159.737 94.1787 159.369 88.7552 156.943C78.3648 152.296 72.6469 140.066 75.9189 129.295C77.6151 123.712 81.8992 121.019 87.2167 119.511C86.5298 120.383 85.81 121.231 85.1614 122.13C81.481 127.234 79.826 132.865 81.4056 139.064C83.2345 146.241 89.4043 151.053 97.035 151.617C106.802 152.34 115.615 146.012 117.802 136.708C119.099 131.187 116.917 125.938 111.766 122.217C110.156 121.053 108.463 120.025 106.574 119.188C105.378 118.903 104.291 118.604 103.252 118.037C101.687 117.184 99.9929 116.589 98.1945 116.082C97.8886 116.061 97.6845 115.983 97.4237 115.829C96.1983 114.99 94.9103 114.516 93.4607 114.235C93.2177 114.191 93.0701 114.12 92.8633 113.983C91.2155 112.973 89.5137 112.26 87.8222 111.53C86.9053 111.134 85.9638 110.796 85.1728 110.02C85.0125 109.885 84.907 109.812 84.7349 109.735C84.193 109.799 83.801 109.586 83.3948 109.382C79.4054 107.375 75.6497 105 72.0643 102.206C71.9171 102.092 71.8372 102.023 71.7034 101.898C70.855 101.135 69.9905 100.513 69.1396 99.7541C69.0388 99.6734 68.9991 99.64 68.9062 99.5496C66.4077 97.4498 64.3693 95.0006 62.066 92.7041C61.9288 92.5794 61.8529 92.5053 61.7244 92.3709C59.5967 89.9589 57.4551 87.6669 55.3344 85.3571C53.2737 83.1129 50.8609 81.3782 47.7759 80.7825C41.9204 79.6517 37.6135 84.3082 36.9648 88.6602C39.3188 86.5236 41.9209 85.3508 45.2129 86.5323C45.4465 86.6034 45.5928 86.6749 45.8132 86.7802C47.2401 87.6872 48.633 88.5188 49.2951 90.202C49.358 90.3184 49.3797 90.3664 49.4239 90.4892C49.5684 91.0616 49.7478 91.5309 50.1444 91.9841C50.2074 92.1657 50.2145 92.276 50.1844 92.471C49.733 93.3907 50.1125 94.4306 49.4426 95.291C48.2805 98.3124 46.133 100.028 43.0192 100.239C39.8959 100.45 37.4443 99.0357 35.7299 96.4344C30.3866 88.3271 34.2718 76.4443 43.2664 73.4803C48.2782 71.8287 52.7896 73.043 56.8522 76.2187C59.9346 78.6281 62.5281 81.5469 65.135 84.4347C75.0019 95.3648 86.8976 103.289 100.585 108.621C105.633 110.588 110.733 112.437 115.591 114.869C117.202 115.676 118.73 116.606 120.278 117.657C120.352 117.68 120.407 117.618 120.378 117.647Z" fill="#FCF3DE"/>
<path d="M68.5381 54.5906C68.7063 57.003 68.0548 58.9667 66.0155 60.2953C63.2387 62.1045 59.3994 61.0638 57.3331 57.979C55.7159 55.5645 55.1027 52.8399 55.0413 50.0078C54.8477 41.0854 59.6442 32.2877 68.3909 28.4644C69.0057 28.1957 69.6411 27.974 70.3242 27.6758C70.379 27.5698 70.3766 27.5183 70.3811 27.5438C71.5724 27.484 72.7076 27.1087 73.8961 26.9582C76.4665 26.6327 78.983 26.8425 81.4576 27.5356C82.1285 27.7235 82.4369 27.602 82.7917 27.0009C84.4126 24.2546 85.5985 21.3765 85.5427 18.1308C85.5124 16.3704 85.0741 14.7056 83.7047 13.458C81.7522 11.6792 79.0339 11.7567 77.011 13.6254C76.6539 13.9553 76.3141 14.3064 75.9908 14.6695C75.6018 15.1064 75.155 15.3935 74.6481 14.9438C74.1718 14.5213 74.1524 13.9949 74.5398 13.4403C75.3732 12.2473 76.4858 11.3746 77.705 10.6283C81.655 8.21011 86.7168 8.26529 89.9759 10.8179C92.7139 12.9623 93.3908 15.8899 92.8784 19.1718C92.2861 22.9645 90.1135 25.9038 87.5645 28.5954C87.007 29.1841 86.9404 29.6498 87.2299 30.3615C91.5985 41.1013 95.9462 51.8496 100.377 62.5897C100.514 62.608 100.573 62.6326 100.541 62.6268C100.32 63.0042 100.598 63.3081 100.733 63.6399C103.494 70.4402 106.264 77.237 109.093 84.0838C110.965 88.6732 112.776 93.2134 114.637 97.8125C115.667 98.7928 115.953 100.013 116.132 101.357C117.366 104.562 118.625 107.681 119.868 110.805C120.094 111.374 120.257 111.968 120.491 112.678C119.838 112.633 119.499 112.202 119.095 111.96C116.136 110.182 112.973 108.835 109.793 107.527C109.05 107.222 108.59 106.775 108.286 106.02C102.224 90.9738 95.9039 76.0331 89.9671 60.9363C87.7373 55.2662 85.4996 49.5991 83.2066 43.8815C82.1915 41.3627 81.24 38.8913 80.2778 36.4241C79.4796 34.3774 79.4741 34.3796 80.8515 32.6607C74.3017 31.1092 68.714 32.8538 64.0365 37.3727C59.9705 41.3008 58.1066 46.1203 59.1592 52.0697C60.7791 50.4139 62.5352 49.8166 64.5777 50.3989C66.4937 50.9452 67.6634 52.2835 68.3415 54.1939C68.5236 54.2873 68.5863 54.373 68.5381 54.5906Z" fill="#FBF3DF"/>
<path d="M72.0566 144.529C72.2636 145.492 72.6282 146.327 73.0604 147.097C73.5329 147.939 73.2553 148.42 72.6471 149.009C71.2237 150.388 69.5124 151.288 67.788 152.232C67.8556 152.367 67.8994 152.415 67.8601 152.512C67.0652 152.603 66.369 152.726 65.6803 152.915C63.0795 153.631 60.4479 153.49 57.8032 153.222C56.1564 153.055 54.6118 152.59 53.0515 151.835C52.9811 151.771 52.9629 151.792 52.9729 151.782C52.7394 151.595 52.4191 151.607 52.1163 151.394C52.0633 151.343 51.9738 151.323 51.928 151.325C51.811 151.291 51.7475 151.246 51.658 151.141C48.7187 149.172 46.0213 147.051 44.123 144.037C41.1652 139.342 40.1444 134.273 40.9472 128.806C41.7536 123.315 43.9667 118.292 46.1357 113.258C47.035 111.17 47.9185 109.069 48.9545 107.048C51.5429 102 54.5654 100.809 60.0755 102.649C60.5377 103.12 60.3999 103.515 60.2188 103.955C57.3935 110.823 54.1695 117.528 51.7729 124.569C51.0372 126.731 50.5354 128.964 50.3921 131.244C50.1936 134.402 51.1518 137.279 52.8146 140.032C52.8392 140.172 52.8422 140.228 52.804 140.359C55.8213 145.129 64.136 148.056 70.9248 140.931C71.2963 142.141 71.652 143.301 72.0566 144.529Z" fill="#FCF3DE"/>
<path d="M81.2788 57.7989C77.7502 66.0002 74.2565 74.1222 70.7466 82.2372C69.9388 84.1049 69.9004 84.1069 68.4338 82.657C66.865 81.106 65.2724 79.5742 63.9708 77.7776C63.6351 77.3143 63.4126 76.9123 63.7099 76.2597C68.2734 66.2429 72.6265 56.1307 77.381 46.2007C77.5083 45.9347 77.6636 45.6822 77.8045 45.4258C78.266 45.511 78.2815 45.8935 78.3965 46.189C79.4134 48.8006 80.3755 51.435 81.4573 54.0193C82.003 55.3228 82.0994 56.5135 81.2788 57.7989Z" fill="#FBF2DE"/>
<path d="M120.294 65.4639C119.95 65.4156 119.553 65.5974 119.439 65.2607C119.311 64.8843 119.689 64.639 119.948 64.5194C120.388 64.3171 120.565 64.0726 120.431 63.4559C120.491 63.1994 120.538 63.0993 120.633 62.9308C121.49 62.0319 122.41 61.3174 123.191 60.455C127.006 56.2448 125.121 48.9919 119.75 47.2385C116.697 46.2421 113.345 47.4084 111.209 50.2109C111.005 50.4787 110.841 50.7763 110.555 51.0807C110.142 51.3338 109.835 51.5662 109.834 52.1088C109.795 52.2354 109.776 52.2853 109.717 52.4057C109.295 54.4867 108.847 56.5015 110.141 58.4566C110.34 58.6407 110.414 58.7962 110.374 59.0669C109.9 59.4421 110.195 59.9971 109.911 60.4152C108.344 58.6767 107.438 56.6487 106.673 54.4784C106.574 54.3476 106.541 54.2473 106.518 54.0674C106.398 51.4485 106.992 49.0638 108.028 46.7632C108.419 45.8942 109.258 45.2494 109.332 44.1276C110.494 42.2407 112.07 40.8662 113.723 39.5774C115.019 38.5666 116.309 37.5542 117.401 36.2373C119.65 38.7623 122.673 40.3563 124.827 42.9502C128.746 47.6699 129.629 54.0801 126.902 58.9626C125.35 61.7406 123.078 63.8215 120.294 65.4639Z" fill="#FAF2DF"/>
<path d="M105.569 136.396C104.39 142.21 99.0215 143.777 95.1374 141.945C91.7154 140.33 90.0371 136.264 91.2605 132.677C92.454 129.177 96.0602 127.077 99.7049 127.758C103.353 128.439 105.901 131.868 105.632 135.737C105.619 135.923 105.598 136.109 105.569 136.396Z" fill="#FCF3DE"/>
<path d="M78.7637 82.3788C80.1297 82.212 81.3994 81.8275 82.7134 81.8531C83.6087 81.8706 83.8158 81.5503 83.6992 80.677C83.2679 77.448 83.574 74.2763 84.6669 71.1959C85.1429 69.8541 85.7152 68.5629 86.8436 67.5227C87.2583 67.2879 87.4444 67.4353 87.4478 67.8417C86.1179 72.0942 85.5906 76.3373 86.4734 80.674C86.5459 81.0299 86.3747 81.5414 87.0447 81.649C87.3318 81.4592 87.5565 81.3508 87.9159 81.3384C90.0114 81.6902 92.0446 81.8763 93.9682 82.6173C94.5956 82.859 95.2112 83.1077 95.8768 83.472C96.5124 83.715 97.0489 83.9479 97.4078 84.5686C98.2408 85.2672 99.0365 85.8865 99.5618 86.7773C100.168 87.8062 100.063 88.8234 99.258 89.6469C98.8751 90.0387 98.6428 89.5849 98.4433 89.4393C96.6446 88.1263 94.6721 87.1617 92.5741 86.4485C91.0141 85.9182 89.4059 85.613 87.7622 85.452C86.9858 85.3759 86.8223 85.6368 86.8662 86.3637C87.0522 89.443 86.1115 92.1662 84.2244 94.6018C83.5827 95.43 83.0797 95.3595 82.3328 94.7431C81.7362 94.2508 81.9878 93.8371 82.2223 93.3793C83.3338 91.2095 83.7873 88.8839 83.9577 86.4741C84.0145 85.6711 83.8294 85.4137 82.984 85.5378C80.5261 85.8986 78.1458 86.4764 75.9976 87.7722C75.6053 88.0089 75.3249 87.9942 74.998 87.7232C74.3651 87.1985 73.76 86.6304 73.0799 86.1751C72.0636 85.4948 72.4719 85.0936 73.2628 84.6492C74.7701 83.8022 76.3447 83.1277 78.0791 82.6274C78.2787 82.3876 78.4572 82.3055 78.7637 82.3788Z" fill="#F7F1DE"/>
<path d="M119.281 34.5104C118.424 33.6877 118 32.678 117.343 31.6865C116.525 33.5381 115.536 35.2012 113.799 36.2502C113.535 36.0783 113.678 35.9053 113.762 35.7644C115.771 32.3809 116.776 28.7255 116.766 24.7882C116.765 24.4323 116.696 24.0214 117.087 23.773C117.293 23.6422 117.508 23.6314 117.727 23.7261C118.205 23.9335 118.185 24.3661 118.174 24.7765C118.083 27.9932 118.768 31.0562 119.998 34.1019C119.895 34.4824 119.682 34.6 119.281 34.5104Z" fill="#EEEAE0"/>
<path d="M58.4464 65.6046C60.3374 65.525 62.0559 65.8028 63.571 66.8208C63.9231 67.0574 64.7565 67.1643 64.3808 67.8271C64.0764 68.364 63.5628 68.7841 62.714 68.384C60.4041 67.2954 58.0014 67.4086 55.6204 68.1661C54.9175 68.3897 54.2313 68.7241 53.6071 69.118C53.0989 69.4387 52.7102 69.2651 52.4108 68.9519C52.0239 68.5471 52.5102 68.2816 52.7377 68.0415C54.2585 66.4363 56.1819 65.7367 58.4464 65.6046Z" fill="#F2ECE1"/>
<path d="M125.846 107.941C124.952 105.517 123.369 103.694 121.592 102.011C121.308 101.741 120.85 101.477 121.209 101.003C121.508 100.609 121.93 100.572 122.418 100.755C126.001 102.103 128.747 107.779 127.56 111.434C127.47 111.708 127.315 111.961 127.106 112.401C126.663 110.823 126.271 109.423 125.846 107.941Z" fill="#EBE6DD"/>
<path d="M128.666 29.0899C129.21 30.6411 129.195 32.1891 129.512 33.6778C130.037 36.1397 130.302 38.632 129.751 41.2057C129.832 41.3332 129.849 41.3872 129.824 41.3672C129.392 42.1117 129.002 42.93 128.612 43.7483C128.546 43.7429 128.48 43.7374 128.414 43.7319C128.414 42.1037 128.455 40.4742 128.404 38.8475C128.329 36.4589 127.775 34.1274 127.479 31.7648C127.363 30.8392 127.082 29.8156 128.203 29.123C128.379 28.9711 128.506 28.9357 128.666 29.0899Z" fill="#EEEAE0"/>
<path d="M107.237 31.0676C106.608 35.2564 106.089 39.3606 106.299 43.6168C105.577 42.74 105.037 41.241 104.909 39.919C104.67 37.4443 104.978 35.0092 105.411 32.5802C105.555 31.7742 105.666 30.9614 105.76 30.1481C105.811 29.7068 105.708 29.1825 106.38 29.1773C106.965 29.1728 107.103 29.6175 107.169 30.0844C107.211 30.3786 107.219 30.6776 107.237 31.0676Z" fill="#F2ECE1"/>
<path d="M111.229 26.7398C111.862 30.3402 110.502 33.4793 109.212 36.6363C108.787 37.6753 108.444 38.7422 108.338 39.89C107.85 38.6489 107.951 37.3616 108.132 36.084C108.4 34.1914 109.232 32.4484 109.643 30.5886C109.924 29.3107 109.89 28.0708 109.507 26.8289C109.38 26.4146 109.092 25.952 109.684 25.6644C110.254 25.3869 110.602 25.6995 110.908 26.2285C111.012 26.2503 111.06 26.2296 111.183 26.2276C111.283 26.2924 111.307 26.3386 111.336 26.463C111.323 26.5904 111.306 26.6397 111.229 26.7398Z" fill="#EEEAE0"/>
<path d="M123.762 26.1919C124.157 25.6521 124.534 25.3737 125.131 25.7428C125.706 26.0988 125.371 26.5271 125.232 26.9221C124.58 28.7846 124.836 30.625 125.454 32.4149C126.278 34.803 126.914 37.2042 126.574 39.7923C125.978 37.6145 124.926 35.6155 124.208 33.4843C123.519 31.4366 123.158 29.3631 123.54 27.112C123.326 26.7074 123.438 26.4608 123.762 26.1919Z" fill="#EBE6DD"/>
<path d="M79.0947 120.659C79.8519 118.367 80.9832 116.256 81.9607 114.077C82.0991 113.768 82.2384 113.409 82.6926 113.723C83.7649 114.463 84.9688 115.006 86.037 115.92C83.7929 117.491 81.3918 118.738 79.3912 120.667C79.2669 120.704 79.2139 120.704 79.0947 120.659Z" fill="#F2ECE1"/>
<path d="M104.055 35.1075C104.332 36.0937 104.205 37.0278 104.138 37.9523C103.923 40.9419 103.989 43.9107 104.632 46.8525C104.705 47.1881 104.912 47.6616 104.5 47.855C104.108 48.0389 103.991 47.5416 103.726 47.2543C103.478 47.2035 103.414 47.079 103.423 46.839C101.889 43.0704 102.356 39.3094 103.084 35.5371C103.144 35.2269 103.277 35.0683 103.68 35.048C103.859 34.9899 103.945 34.9959 104.055 35.1075Z" fill="#F2ECE1"/>
<path d="M131.313 34.9282C132.14 35.8972 132.056 37.1071 132.193 38.2311C132.533 41.0279 132.698 43.8339 131.413 46.4835C131.145 47.0355 130.876 47.9942 130.28 47.7968C129.647 47.5864 130.221 46.7417 130.337 46.2195C131.069 42.924 131.001 39.6116 130.707 36.2816C130.663 35.7937 130.35 35.1004 131.313 34.9282Z" fill="#EEEAE0"/>
<path d="M112.594 30.8737C112.998 29.8987 113.367 29.0055 113.434 28.0193C113.457 27.6921 113.271 27.2061 113.903 27.214C114.403 27.2202 114.662 27.5367 114.743 27.964C114.869 28.6297 114.797 29.29 114.618 29.9545C113.91 32.5871 112.402 34.8268 111.116 37.1762C110.942 37.4941 110.74 37.7961 110.481 38.2179C110.341 35.4666 111.563 33.2422 112.594 30.8737Z" fill="#EBE6DD"/>
<path d="M121.917 29.9534C122.482 31.9437 123.492 33.7452 123.939 35.7484C124.108 36.5072 124.343 37.2552 124.21 38.2013C122.532 35.2879 120.674 32.6129 120.089 29.3338C120.022 28.962 119.973 28.6054 120.079 28.2309C120.216 27.7449 120.378 27.2263 120.975 27.2658C121.61 27.3077 121.275 27.9032 121.377 28.2437C121.537 28.7765 121.638 29.3269 121.825 29.9292C121.886 29.9885 121.942 29.9143 121.917 29.9534Z" fill="#EBE6DD"/>
<path d="M102.121 54.8416C103.691 57.6526 105.846 59.9172 108.063 62.1228C107.782 62.4629 107.546 62.3167 107.328 62.1953C104.022 60.3559 101.581 57.7307 100.115 54.227C99.9243 53.771 99.6894 53.2784 100.538 53.0763C101.796 53.0294 101.819 54.0245 102.121 54.8416Z" fill="#EBE6DD"/>
<path d="M101.635 45.6444C101.671 46.1144 101.743 46.5075 101.873 46.9641C102.151 47.1608 102.188 47.3603 102.104 47.6685C102.099 47.8379 102.124 47.9313 102.187 48.0874C102.521 49.8099 103.402 51.2619 103.896 52.8516C104.111 53.5428 104.429 54.2121 104.382 55.1421C103.666 54.5508 103.294 53.8717 102.765 53.2274C102.659 53.189 102.619 53.1968 102.609 53.1509C101.214 50.7259 100.298 48.1875 100.154 45.4036C100.122 44.7827 100.1 44.1133 101.169 44.3841C101.285 44.5871 101.308 44.7646 101.38 44.9892C101.733 45.1108 101.717 45.3323 101.635 45.6444Z" fill="#EEEAE0"/>
<path d="M133.42 44.7702C133.546 44.2793 133.819 44.2652 134.133 44.4039C134.489 44.5616 134.562 44.8714 134.573 45.2337C134.607 46.3655 134.396 47.4645 134.119 48.5488C133.567 50.7068 132.625 52.6812 131.225 54.4233C131 54.7041 130.814 55.0603 130.289 55.0917C131.212 51.6218 132.838 48.3982 133.42 44.7702Z" fill="#EBE6DD"/>
<path d="M46.8235 103.419C46.1246 105.251 44.9625 106.832 44.357 108.686C43.9085 110.059 43.2855 111.36 42.5727 112.674C41.7046 109.437 43.4338 105.509 46.6064 103.492C46.7036 103.42 46.7405 103.396 46.8235 103.419Z" fill="#EBE6DD"/>
<path d="M121.817 89.2299C121.562 89.0761 121.373 89.0749 121.142 89.1664C120.873 89.2734 120.721 89.8263 120.343 89.4709C120.009 89.1581 120.39 88.7882 120.416 88.3529C121.412 87.3352 122.657 86.9674 123.929 86.6726C124.293 86.5883 124.736 86.5259 124.895 86.9656C125.031 87.3447 124.678 87.5681 124.391 87.741C123.563 88.2395 122.726 88.7213 121.817 89.2299Z" fill="#EBE6DD"/>
<path d="M109.301 44.0874C109.631 44.6808 109.482 45.1568 109.074 45.7553C107.425 48.1764 106.542 50.8678 106.577 53.9102C106.069 50.3273 107.348 47.1441 109.301 44.0874Z" fill="#F1EEE3"/>
<path d="M119.23 34.5377C119.408 34.401 119.629 34.3303 119.929 34.2242C120.079 34.209 120.184 34.2064 120.215 34.253C120.514 34.6998 121.111 35.3507 120.754 35.6599C120.324 36.0314 120.006 35.1688 119.587 34.92C119.463 34.8464 119.376 34.7109 119.23 34.5377Z" fill="#EBE6DD"/>
<path d="M110.171 51.1239C112.484 47.4571 115.591 45.9244 119.114 46.6901C125.143 48.0004 127.694 55.8173 123.638 60.535C122.828 61.4767 121.883 62.262 120.868 63.0803C120.779 63.291 120.65 63.3205 120.476 63.3988C120.432 63.4487 120.416 63.4458 120.414 63.454C119.702 63.9895 118.991 64.5168 118.177 65.1209C118.177 64.6548 118.195 64.2672 118.172 63.8822C118.145 63.4492 118.012 63.0682 117.495 63.0031C116.951 62.9345 116.765 63.3308 116.672 63.731C116.573 64.1581 116.575 64.6089 116.52 65.1975C114.389 63.2331 111.887 61.7936 110.401 59.1903C110.305 59.0225 110.272 58.8955 110.184 58.7305C109.427 58.1131 109.398 57.2065 109.26 56.4549C109.014 55.1082 109.113 53.7125 109.603 52.3096C109.682 52.2471 109.647 52.2169 109.66 52.2361C109.79 51.8837 109.601 51.3866 110.171 51.1239Z" fill="#100F27"/>
<path d="M109.592 52.2539C109.16 54.382 109.278 56.4743 110.115 58.606C108.987 58.6616 109.355 57.5905 109.183 57.0649C108.664 55.4731 108.911 53.8323 109.592 52.2539Z" fill="#F1EEE3"/>
<path d="M62.5046 108.994C63.2231 109.229 63.926 109.482 63.9079 110.3C63.89 111.107 63.2576 111.508 62.5707 111.791C61.8835 112.074 61.1931 112.343 60.2599 112.233C60.778 111.104 61.2248 110.024 61.9327 108.988C62.1335 108.956 62.2815 108.976 62.5046 108.994Z" fill="#EBE6DD"/>
<path d="M122.258 51.9465C123.795 54.5415 123.698 56.9947 122.027 59.1135C120.567 60.964 118.047 61.708 115.633 61.0009C113.141 60.271 111.538 57.8522 111.619 54.9435C111.689 52.4439 113.65 50.0637 116.042 49.5008C118.656 48.8857 120.653 49.7927 122.258 51.9465Z" fill="#88E1E7"/>
<path d="M64.9121 116.322C66.2022 116.041 67.2953 115.397 68.2846 114.588C68.727 114.226 68.9371 114.113 69.2309 114.75C69.9558 116.321 70.8748 117.779 72.1455 118.979C72.5816 119.391 72.4222 119.593 71.9996 119.901C67.5858 123.117 62.8037 123.791 57.6613 122.023C57.2778 121.891 56.9343 121.643 56.5728 121.448C56.0882 121.186 55.9198 120.851 56.3215 120.379C56.3447 120.352 56.3525 120.312 56.3671 120.277C57.2541 118.192 58.3327 116.556 61.108 117.173C62.3224 117.443 63.6149 116.895 64.8828 116.414C64.9434 116.357 64.8808 116.289 64.9121 116.322Z" fill="#F8F1DD"/>
<path d="M71.371 107.48C71.5528 107.43 71.7157 107.48 71.9628 107.55C73.2627 107.57 73.9595 108.533 74.8143 109.153C74.756 109.212 74.7692 109.241 74.785 109.241C75.5784 109.752 76.3465 110.278 77.1383 110.767C77.4547 110.962 77.6805 111.114 77.5113 111.544C76.7235 113.548 75.8071 115.487 74.7649 117.412C71.6362 114.744 70.7445 111.418 71.371 107.48Z" fill="#F7F1DE"/>
<path d="M116.006 58.0026C114.55 56.8804 114.151 55.5283 114.81 54.1482C115.382 52.9481 116.962 52.2874 118.34 52.672C119.613 53.0274 120.544 54.3812 120.45 55.7432C120.313 57.7365 118.202 58.8493 116.006 58.0026Z" fill="#100F27"/>
</svg>
