<svg width="860" height="181" viewBox="0 0 860 181" fill="none" xmlns="http://www.w3.org/2000/svg">
<g clip-path="url(#clip0_1621_41)">
<path d="M294.527 47.7281V138.972H276.226V79.6243L251.781 138.972H237.925L213.349 79.6243V138.972H195.048V47.7281H215.832L244.853 115.573L273.873 47.7281H294.527ZM321.902 57.9244C318.678 57.9244 315.976 56.9222 313.798 54.9178C311.706 52.8262 310.66 50.2554 310.66 47.2052C310.66 44.155 311.706 41.6277 313.798 39.6233C315.976 37.5317 318.678 36.4859 321.902 36.4859C325.127 36.4859 327.785 37.5317 329.876 39.6233C332.055 41.6277 333.144 44.155 333.144 47.2052C333.144 50.2554 332.055 52.8262 329.876 54.9178C327.785 56.9222 325.127 57.9244 321.902 57.9244ZM330.922 66.5521V138.972H312.621V66.5521H330.922ZM389.135 65.5063C397.763 65.5063 404.735 68.2514 410.051 73.7418C415.367 79.145 418.025 86.7269 418.025 96.4874V138.972H399.724V98.9712C399.724 93.2194 398.286 88.8184 395.41 85.7682C392.534 82.6309 388.613 81.0622 383.645 81.0622C378.591 81.0622 374.582 82.6309 371.619 85.7682C368.743 88.8184 367.305 93.2194 367.305 98.9712V138.972H349.004V66.5521H367.305V75.5719C369.745 72.4346 372.839 69.9944 376.586 68.2514C380.421 66.4213 384.604 65.5063 389.135 65.5063ZM444.71 57.9244C441.485 57.9244 438.784 56.9222 436.605 54.9178C434.513 52.8262 433.468 50.2554 433.468 47.2052C433.468 44.155 434.513 41.6277 436.605 39.6233C438.784 37.5317 441.485 36.4859 444.71 36.4859C447.934 36.4859 450.592 37.5317 452.684 39.6233C454.862 41.6277 455.952 44.155 455.952 47.2052C455.952 50.2554 454.862 52.8262 452.684 54.9178C450.592 56.9222 447.934 57.9244 444.71 57.9244ZM453.73 66.5521V138.972H435.428V66.5521H453.73ZM499.524 140.149C493.598 140.149 488.282 139.103 483.576 137.011C478.87 134.833 475.123 131.913 472.334 128.253C469.632 124.593 468.151 120.54 467.889 116.096H486.321C486.67 118.885 488.021 121.194 490.374 123.024C492.814 124.854 495.82 125.769 499.393 125.769C502.879 125.769 505.581 125.072 507.498 123.678C509.503 122.283 510.505 120.497 510.505 118.318C510.505 115.965 509.285 114.222 506.845 113.089C504.492 111.869 500.701 110.562 495.472 109.168C490.069 107.86 485.624 106.509 482.138 105.115C478.739 103.721 475.776 101.586 473.249 98.7097C470.809 95.8338 469.589 91.9557 469.589 87.0754C469.589 83.0666 470.722 79.4064 472.988 76.0948C475.341 72.7831 478.652 70.1687 482.922 68.2514C487.28 66.3342 492.378 65.3756 498.217 65.3756C506.845 65.3756 513.729 67.5543 518.871 71.9117C524.013 76.1819 526.845 81.9773 527.368 89.2977H509.851C509.59 86.4218 508.37 84.156 506.191 82.5002C504.099 80.7572 501.267 79.8857 497.694 79.8857C494.382 79.8857 491.812 80.4958 489.981 81.7158C488.239 82.9359 487.367 84.6353 487.367 86.814C487.367 89.2541 488.587 91.1278 491.027 92.4351C493.467 93.6551 497.258 94.9188 502.4 96.226C507.629 97.5332 511.943 98.884 515.342 100.278C518.74 101.673 521.66 103.851 524.1 106.815C526.627 109.69 527.934 113.525 528.022 118.318C528.022 122.501 526.845 126.249 524.492 129.56C522.226 132.872 518.915 135.486 514.557 137.404C510.287 139.234 505.276 140.149 499.524 140.149ZM649.881 47.7281V138.972H631.58V100.148H592.494V138.972H574.193V47.7281H592.494V85.2453H631.58V47.7281H649.881ZM736.262 66.5521V138.972H717.83V129.822C715.477 132.959 712.384 135.443 708.549 137.273C704.802 139.016 700.706 139.887 696.261 139.887C690.596 139.887 685.585 138.711 681.228 136.358C676.871 133.918 673.428 130.388 670.901 125.769C668.461 121.063 667.241 115.486 667.241 109.037V66.5521H685.542V106.422C685.542 112.174 686.98 116.619 689.856 119.756C692.732 122.806 696.653 124.331 701.621 124.331C706.675 124.331 710.641 122.806 713.516 119.756C716.392 116.619 717.83 112.174 717.83 106.422V66.5521H736.262ZM772.62 77.1406C774.973 73.6546 778.198 70.8223 782.294 68.6436C786.477 66.4649 791.226 65.3756 796.542 65.3756C802.73 65.3756 808.307 66.9007 813.275 69.9508C818.329 73.001 822.295 77.3584 825.171 83.0231C828.134 88.6005 829.615 95.0931 829.615 102.501C829.615 109.908 828.134 116.488 825.171 122.24C822.295 127.904 818.329 132.305 813.275 135.443C808.307 138.58 802.73 140.149 796.542 140.149C791.139 140.149 786.39 139.103 782.294 137.011C778.285 134.833 775.06 132.044 772.62 128.645V138.972H754.319V42.2377H772.62V77.1406ZM810.922 102.501C810.922 98.1433 810.007 94.3959 808.177 91.2586C806.434 88.0341 804.081 85.5939 801.118 83.9381C798.242 82.2823 795.104 81.4544 791.706 81.4544C788.394 81.4544 785.257 82.3259 782.294 84.0688C779.418 85.7247 777.065 88.1648 775.235 91.3893C773.492 94.6138 772.62 98.4047 772.62 102.762C772.62 107.12 773.492 110.91 775.235 114.135C777.065 117.359 779.418 119.843 782.294 121.586C785.257 123.242 788.394 124.07 791.706 124.07C795.104 124.07 798.242 123.198 801.118 121.455C804.081 119.712 806.434 117.229 808.177 114.004C810.007 110.78 810.922 106.945 810.922 102.501Z" fill="white"/>
<path d="M129.497 70.4665C127.518 71.9089 127.518 71.9089 127.459 75.0121C128.547 74.3232 129.542 73.6005 130.618 73.0314C133.142 71.6966 135.708 70.4423 138.249 69.1392C138.892 68.8094 139.491 68.3926 140.136 68.0681C140.411 67.9297 140.692 67.3995 141.038 67.8381C141.305 68.1759 140.958 68.5206 140.749 68.8034C139.716 70.2067 138.25 71.0534 136.765 71.8759C134.375 73.2004 131.796 74.1471 129.478 75.6314C128.051 76.5448 126.973 77.4756 127.485 79.3684C127.571 79.69 127.464 80.0641 127.437 80.5893C130.194 77.9506 133.473 76.5999 136.91 75.56C137.475 75.389 138.323 75.0306 138.554 75.5967C138.856 76.3376 137.908 76.559 137.379 76.8225C134.758 78.1273 131.94 79.0324 129.585 80.8761C128.198 81.9616 126.895 82.9807 127.477 85.0353C127.544 85.274 127.39 85.5756 127.306 86.0209C129.197 84.3936 131.077 83.0207 133.528 82.5189C133.784 82.464 133.967 82.4576 134.239 82.4263C134.771 82.57 135.371 82.6455 135.329 83.2692C135.293 83.8104 134.68 83.8273 134.309 83.9567C132.668 84.5286 131.133 85.2875 129.628 86.1606C127.867 87.182 126.914 88.4929 127.423 90.6821C127.56 90.8168 127.312 91.0382 127.623 91.0446C129.606 89.2217 131.837 87.9095 134.404 87.1807C134.698 87.0975 135.056 86.8559 135.237 87.2785C135.37 87.5882 135.051 87.7875 134.833 87.9444C134.344 88.2959 133.835 88.62 133.327 88.9442C132.48 89.485 131.615 89.9987 130.78 90.5564C128.424 92.1285 126.485 93.9215 127.598 97.1828C128.171 96.5182 128.762 95.7208 129.668 95.1375C129.845 95.9915 130.748 95.608 131.167 96.0735C131.107 96.2148 131.061 96.2874 130.996 96.3295C128.275 98.0763 126.688 100.354 127.43 103.772C127.537 104.264 127.445 104.799 127.445 105.635C128.808 103.182 130.517 101.6 133.118 101.177C130.556 103.451 128.624 106.161 127.179 109.334C126.239 107.336 125.381 105.428 125.567 103.256C125.671 102.044 125.241 101.12 124.44 100.212C123.537 99.1878 122.426 98.2051 122.468 96.51C123.765 96.9101 124.552 97.8588 125.511 98.7882C125.511 97.2917 125.528 95.9109 125.503 94.5308C125.492 93.967 125.069 93.607 124.705 93.2314C123.096 91.574 121.081 90.4299 119.329 88.9554C118.834 88.5393 118.117 88.2336 118.293 87.3134C119.271 86.7986 119.88 87.2585 120.46 88.0477C122.283 89.1487 123.928 90.3409 125.576 91.7495C125.576 90.7574 125.577 89.8181 125.575 88.8788C125.574 88.3909 125.271 88.0986 124.934 87.7872C123.256 86.2356 121.284 85.1863 119.184 84.3434C118.777 84.1801 118.377 83.9997 117.98 83.812C117.665 83.663 117.453 83.433 117.545 83.0501C117.642 82.6478 117.979 82.6108 118.304 82.6066C118.825 82.5997 119.351 82.5877 119.94 82.8195C120.136 82.7602 120.243 82.7133 120.446 82.6827C122.3 83.1243 123.615 84.3564 125.143 85.2968C125.456 83.818 125.038 82.6534 123.729 81.8222C123.358 81.5868 122.995 81.3272 122.637 80.9365C122.572 80.8122 122.557 80.7578 122.599 80.6417C120.866 79.0898 118.667 78.3553 116.626 77.3288C115.981 77.0049 115.348 76.6588 114.719 76.3045C114.459 76.1577 114.29 75.9211 114.391 75.6018C114.5 75.2554 114.805 75.236 115.088 75.289C115.559 75.3774 116.036 75.4694 116.486 75.6292C119.717 76.7765 122.766 78.2705 125.555 80.6324C125.555 79.567 125.54 78.6997 125.561 77.8333C125.574 77.3153 125.263 77.0613 124.902 76.7723C123.034 75.2768 120.938 74.184 118.791 73.1552C116.836 72.2184 114.836 71.3304 113.268 69.758C112.758 69.2469 112.227 68.744 111.983 67.6321C116.56 70.2465 121.253 72.106 125.39 75.0284C125.997 72.954 125.703 72.0716 123.911 70.8875C120.961 68.9372 118.268 66.7391 116.505 63.5861C115.673 62.0986 115.092 60.5287 114.845 58.7517C115.722 58.6037 115.777 59.3619 115.882 59.8593C116.202 61.3728 117.062 62.5542 117.936 63.7652C118.351 64.3401 118.399 63.7358 118.693 63.6419C119.409 63.5974 119.654 64.1069 119.959 64.5179C121.367 66.4167 123.302 67.7482 125.064 69.4118C125.474 68.5985 125.526 67.5305 126.669 67.6449C127.558 67.7339 127.527 68.581 127.762 69.2579C128.417 69.0249 128.82 68.3587 129.61 68.2969C130.169 68.7213 130.216 69.1554 129.751 69.6009C129.52 69.8214 129.265 70.019 129.497 70.4665Z" fill="#F1EEE3"/>
<path d="M144.273 57.3298C144.648 57.2014 144.936 57.331 145.236 57.6211C145.271 57.7976 145.264 57.9055 145.268 58.0938C143.759 62.2784 138.955 67.176 136.525 67.0496C139.73 64.3155 142.24 61.0629 144.273 57.3298Z" fill="#EEEAE0"/>
<path d="M129.693 126.751C131.753 128.56 133.814 130.377 135.251 132.754C139.772 140.23 139.602 147.899 135.647 155.437C131.018 164.258 123.492 169.326 113.74 171.022C107.55 172.098 101.466 171.701 95.6231 169.088C84.4288 164.08 78.2684 150.904 81.7936 139.3C83.621 133.285 88.2366 130.384 93.9657 128.759C93.2256 129.698 92.4501 130.612 91.7513 131.581C87.7861 137.079 86.003 143.146 87.7049 149.825C89.6752 157.558 96.3225 162.742 104.544 163.35C115.067 164.128 124.562 157.311 126.917 147.286C128.315 141.338 125.964 135.683 120.415 131.674C118.68 130.42 116.856 129.312 114.821 128.411C113.532 128.104 112.361 127.781 111.242 127.171C109.556 126.252 107.73 125.611 105.793 125.064C105.463 125.042 105.243 124.958 104.962 124.792C103.642 123.888 102.255 123.377 100.693 123.074C100.431 123.027 100.272 122.951 100.049 122.803C98.2739 121.715 96.4403 120.947 94.618 120.16C93.6301 119.733 92.6158 119.369 91.7636 118.534C91.5908 118.388 91.4771 118.309 91.2918 118.226C90.7079 118.295 90.2856 118.066 89.8479 117.846C85.5499 115.683 81.5036 113.125 77.6407 110.115C77.4821 109.992 77.396 109.918 77.2519 109.783C76.3378 108.961 75.4064 108.291 74.4897 107.473C74.381 107.386 74.3384 107.35 74.2383 107.253C71.5464 104.99 69.3502 102.352 66.8687 99.8776C66.7209 99.7433 66.6391 99.6634 66.5007 99.5186C64.2083 96.9199 61.9011 94.4506 59.6162 91.9621C57.3961 89.5442 54.7965 87.6753 51.4728 87.0335C45.1643 85.8152 40.5241 90.832 39.8252 95.5207C42.3613 93.2188 45.1647 91.9553 48.7115 93.2282C48.9631 93.3049 49.1208 93.3819 49.3582 93.4954C50.8956 94.4725 52.3963 95.3684 53.1096 97.1819C53.1773 97.3073 53.2007 97.359 53.2483 97.4913C53.404 98.108 53.5974 98.6137 54.0246 99.1019C54.0925 99.2975 54.1002 99.4164 54.0678 99.6265C53.5814 100.617 53.9903 101.738 53.2685 102.665C52.0165 105.92 49.7028 107.769 46.348 107.995C42.9831 108.223 40.3417 106.699 38.4947 103.897C32.738 95.1619 36.9237 82.3596 46.6144 79.1662C52.0141 77.3869 56.8745 78.6951 61.2515 82.1165C64.5724 84.7124 67.3666 87.857 70.1752 90.9683C80.8056 102.744 93.6218 111.281 108.368 117.026C113.807 119.145 119.302 121.138 124.536 123.758C126.271 124.627 127.918 125.629 129.585 126.761C129.665 126.786 129.724 126.719 129.693 126.751Z" fill="#FCF3DE"/>
<path d="M73.8417 58.815C74.023 61.414 73.321 63.5297 71.124 64.9611C68.1323 66.9103 63.9958 65.789 61.7697 62.4655C60.0274 59.8643 59.3667 56.9288 59.3005 53.8776C59.0919 44.2647 64.2596 34.7862 73.6832 30.6671C74.3456 30.3776 75.0301 30.1387 75.766 29.8175C75.8251 29.7033 75.8225 29.6478 75.8273 29.6753C77.1108 29.6109 78.3338 29.2065 79.6143 29.0444C82.3836 28.6937 85.0948 28.9198 87.7609 29.6665C88.4837 29.8689 88.816 29.738 89.1983 29.0904C90.9446 26.1316 92.2222 23.0307 92.1621 19.5338C92.1296 17.6373 91.6573 15.8436 90.182 14.4995C88.0784 12.583 85.1497 12.6665 82.9702 14.6799C82.5855 15.0353 82.2194 15.4135 81.8711 15.8047C81.452 16.2754 80.9707 16.5848 80.4245 16.1003C79.9113 15.6451 79.8904 15.078 80.3079 14.4804C81.2057 13.1952 82.4044 12.2549 83.7179 11.4508C87.9736 8.84552 93.4271 8.90498 96.9384 11.6551C99.8883 13.9655 100.618 17.1196 100.065 20.6554C99.4274 24.7416 97.0866 27.9083 94.3404 30.8082C93.7397 31.4425 93.668 31.9443 93.9799 32.711C98.6865 44.2819 103.371 55.8619 108.144 67.433C108.292 67.4528 108.356 67.4793 108.321 67.4731C108.083 67.8796 108.383 68.2071 108.528 68.5645C111.503 75.891 114.487 83.2138 117.534 90.5904C119.551 95.535 121.502 100.427 123.507 105.381C124.617 106.438 124.926 107.753 125.118 109.2C126.448 112.653 127.804 116.013 129.144 119.38C129.387 119.992 129.562 120.632 129.815 121.398C129.111 121.349 128.746 120.885 128.311 120.623C125.123 118.708 121.715 117.257 118.289 115.848C117.488 115.519 116.993 115.037 116.665 114.224C110.135 98.0135 103.325 81.9167 96.9289 65.6517C94.5266 59.5428 92.1158 53.4373 89.6453 47.2772C88.5517 44.5635 87.5265 41.9009 86.4898 39.2427C85.6299 37.0377 85.6239 37.04 87.108 35.1881C80.0514 33.5166 74.0313 35.3961 68.9918 40.2647C64.6111 44.4968 62.603 49.6893 63.737 56.099C65.4824 54.3151 67.3743 53.6716 69.5749 54.299C71.6392 54.8875 72.8993 56.3293 73.6299 58.3876C73.8261 58.4882 73.8936 58.5805 73.8417 58.815Z" fill="#FBF3DF"/>
<path d="M77.6324 155.713C77.8555 156.75 78.2483 157.65 78.714 158.48C79.223 159.387 78.9239 159.905 78.2687 160.54C76.7351 162.025 74.8914 162.994 73.0336 164.012C73.1064 164.158 73.1536 164.209 73.1113 164.313C72.2548 164.411 71.5048 164.544 70.7627 164.748C67.9607 165.519 65.1255 165.367 62.2762 165.078C60.5019 164.898 58.8378 164.397 57.1568 163.584C57.0809 163.515 57.0613 163.538 57.0721 163.527C56.8205 163.325 56.4754 163.339 56.1491 163.109C56.0921 163.054 55.9957 163.033 55.9463 163.034C55.8203 162.998 55.7518 162.949 55.6555 162.836C52.4887 160.715 49.5826 158.43 47.5374 155.183C44.3507 150.124 43.2509 144.663 44.1158 138.773C44.9846 132.857 47.369 127.446 49.7058 122.022C50.6747 119.772 51.6266 117.508 52.7427 115.331C55.5314 109.892 58.7878 108.609 64.7243 110.592C65.2222 111.099 65.0738 111.525 64.8787 111.999C61.8348 119.398 58.3612 126.622 55.7792 134.209C54.9866 136.538 54.446 138.943 54.2916 141.399C54.0777 144.803 55.11 147.902 56.9016 150.868C56.928 151.019 56.9313 151.079 56.8901 151.22C60.1409 156.36 69.099 159.512 76.4131 151.836C76.8134 153.14 77.1966 154.389 77.6324 155.713Z" fill="#FCF3DE"/>
<path d="M87.5683 62.2715C83.7666 71.1074 80.0025 79.8579 76.2211 88.6008C75.3507 90.6131 75.3094 90.6152 73.7293 89.0531C72.0391 87.3821 70.3233 85.7318 68.9209 83.7962C68.5593 83.297 68.3196 82.8639 68.6399 82.1608C73.5564 71.3689 78.2464 60.4742 83.3688 49.7758C83.506 49.4893 83.6733 49.2172 83.8251 48.9409C84.3223 49.0327 84.339 49.4448 84.463 49.7632C85.5585 52.5769 86.595 55.4151 87.7606 58.1994C88.3485 59.6038 88.4524 60.8867 87.5683 62.2715Z" fill="#FBF2DE"/>
<path d="M129.602 70.5297C129.232 70.4777 128.805 70.6735 128.681 70.3107C128.543 69.9052 128.95 69.641 129.23 69.5121C129.703 69.2942 129.894 69.0307 129.75 68.3663C129.815 68.0899 129.865 67.9822 129.968 67.8006C130.891 66.8321 131.882 66.0623 132.724 65.1332C136.834 60.5972 134.802 52.783 129.016 50.894C125.728 49.8205 122.116 51.077 119.814 54.0964C119.595 54.3849 119.418 54.7055 119.109 55.0335C118.665 55.3062 118.334 55.5565 118.333 56.1412C118.292 56.2775 118.271 56.3313 118.207 56.4611C117.752 58.703 117.269 60.8737 118.664 62.9801C118.879 63.1785 118.958 63.346 118.914 63.6377C118.404 64.0419 118.722 64.6399 118.416 65.0903C116.727 63.2173 115.752 61.0324 114.927 58.6941C114.821 58.5532 114.785 58.4451 114.76 58.2513C114.631 55.4298 115.272 52.8605 116.387 50.3819C116.808 49.4457 117.712 48.751 117.792 47.5424C119.044 45.5095 120.742 44.0286 122.523 42.6401C123.92 41.5511 125.309 40.4603 126.486 39.0415C128.909 41.7619 132.165 43.4793 134.486 46.2739C138.709 51.3588 139.66 58.265 136.722 63.5254C135.05 66.5183 132.602 68.7602 129.602 70.5297Z" fill="#FAF2DF"/>
<path d="M113.738 146.951C112.468 153.215 106.684 154.903 102.499 152.929C98.8125 151.189 97.0043 146.808 98.3223 142.944C99.6082 139.174 103.493 136.91 107.42 137.644C111.351 138.378 114.096 142.073 113.806 146.241C113.792 146.442 113.769 146.642 113.738 146.951Z" fill="#FCF3DE"/>
<path d="M84.8585 88.7533C86.3302 88.5737 87.6982 88.1593 89.1139 88.187C90.0784 88.2058 90.3015 87.8607 90.1759 86.9199C89.7113 83.4411 90.041 80.0238 91.2185 76.7051C91.7313 75.2595 92.3479 73.8684 93.5637 72.7477C94.0104 72.4947 94.2109 72.6535 94.2146 73.0914C92.7818 77.673 92.2137 82.2443 93.1648 86.9167C93.2429 87.3001 93.0584 87.8511 93.7803 87.9671C94.0896 87.7626 94.3317 87.6458 94.7189 87.6324C96.9765 88.0115 99.1671 88.212 101.24 89.0103C101.916 89.2707 102.579 89.5386 103.296 89.9311C103.981 90.1929 104.559 90.4438 104.945 91.1126C105.843 91.8653 106.7 92.5325 107.266 93.4922C107.92 94.6007 107.806 95.6967 106.939 96.5839C106.526 97.0059 106.276 96.517 106.061 96.3602C104.123 94.9457 101.998 93.9064 99.7376 93.138C98.0569 92.5666 96.3243 92.2378 94.5533 92.0643C93.7168 91.9823 93.5407 92.2634 93.588 93.0466C93.7884 96.3642 92.7749 99.2981 90.7418 101.922C90.0504 102.814 89.5084 102.739 88.7037 102.074C88.061 101.544 88.3321 101.098 88.5847 100.605C89.7822 98.2673 90.2708 95.7619 90.4544 93.1655C90.5156 92.3004 90.3163 92.0232 89.4053 92.1569C86.7573 92.5455 84.1928 93.1681 81.8784 94.5641C81.4558 94.8191 81.1537 94.8032 80.8015 94.5113C80.1196 93.9461 79.4676 93.334 78.7349 92.8434C77.64 92.1105 78.0799 91.6782 78.9319 91.1994C80.5559 90.2869 82.2523 89.5603 84.121 89.0212C84.336 88.7628 84.5283 88.6744 84.8585 88.7533Z" fill="#F7F1DE"/>
<path d="M128.511 37.1808C127.588 36.2944 127.132 35.2066 126.423 34.1384C125.542 36.1332 124.476 37.925 122.605 39.0552C122.32 38.87 122.475 38.6837 122.565 38.5318C124.73 34.8865 125.812 30.9483 125.802 26.7062C125.801 26.3228 125.726 25.8801 126.147 25.6126C126.369 25.4716 126.601 25.4599 126.837 25.562C127.352 25.7854 127.331 26.2515 127.318 26.6937C127.22 30.1593 127.958 33.4593 129.283 36.7407C129.173 37.1507 128.944 37.2773 128.511 37.1808Z" fill="#EEEAE0"/>
<path d="M62.9691 70.6808C65.0064 70.5951 66.8579 70.8944 68.4902 71.9911C68.8695 72.246 69.7675 72.3611 69.3626 73.0752C69.0347 73.6537 68.4814 74.1063 67.5669 73.6753C65.0783 72.5024 62.4897 72.6244 59.9244 73.4405C59.1671 73.6814 58.4278 74.0417 57.7553 74.466C57.2077 74.8116 56.789 74.6246 56.4665 74.2871C56.0496 73.8509 56.5736 73.5649 56.8187 73.3062C58.4572 71.5769 60.5294 70.8231 62.9691 70.6808Z" fill="#F2ECE1"/>
<path d="M135.584 116.294C134.62 113.681 132.916 111.718 131.001 109.904C130.694 109.613 130.201 109.33 130.588 108.818C130.91 108.393 131.366 108.354 131.891 108.552C135.751 110.004 138.709 116.119 137.43 120.057C137.334 120.352 137.166 120.625 136.942 121.098C136.465 119.398 136.042 117.89 135.584 116.294Z" fill="#EBE6DD"/>
<path d="M138.622 31.3408C139.208 33.0121 139.192 34.6798 139.534 36.2836C140.1 38.9361 140.385 41.6212 139.791 44.3941C139.878 44.5315 139.897 44.5897 139.87 44.5681C139.405 45.3702 138.984 46.2518 138.564 47.1335C138.493 47.1276 138.422 47.1217 138.351 47.1158C138.351 45.3616 138.395 43.606 138.34 41.8535C138.26 39.28 137.662 36.7681 137.344 34.2226C137.219 33.2254 136.916 32.1227 138.124 31.3765C138.313 31.2128 138.45 31.1746 138.622 31.3408Z" fill="#EEEAE0"/>
<path d="M115.535 33.4717C114.857 37.9847 114.298 42.4065 114.525 46.9919C113.747 46.0473 113.165 44.4323 113.027 43.008C112.769 40.3419 113.101 37.7183 113.568 35.1013C113.722 34.2329 113.842 33.3573 113.944 32.481C113.999 32.0056 113.888 31.4407 114.612 31.4351C115.242 31.4302 115.391 31.9094 115.462 32.4124C115.507 32.7294 115.516 33.0515 115.535 33.4717Z" fill="#F2ECE1"/>
<path d="M119.836 28.809C120.518 32.688 119.053 36.0701 117.663 39.4714C117.205 40.5907 116.835 41.7402 116.721 42.9768C116.196 41.6397 116.305 40.2528 116.499 38.8764C116.788 36.8373 117.685 34.9594 118.127 32.9556C118.43 31.5789 118.393 30.243 117.981 28.905C117.844 28.4587 117.534 27.9602 118.171 27.6504C118.786 27.3515 119.16 27.6883 119.49 28.2581C119.602 28.2816 119.654 28.2594 119.787 28.2572C119.894 28.327 119.92 28.3768 119.951 28.5108C119.937 28.6481 119.919 28.7012 119.836 28.809Z" fill="#EEEAE0"/>
<path d="M133.339 28.2187C133.764 27.6371 134.17 27.3372 134.813 27.7349C135.433 28.1183 135.072 28.5798 134.923 29.0053C134.22 31.012 134.496 32.9948 135.162 34.9232C136.049 37.4961 136.734 40.0831 136.368 42.8715C135.727 40.5252 134.593 38.3715 133.82 36.0754C133.076 33.8692 132.688 31.6352 133.1 29.2099C132.869 28.7741 132.99 28.5084 133.339 28.2187Z" fill="#EBE6DD"/>
<path d="M85.2151 129.996C86.0309 127.526 87.2497 125.252 88.3028 122.904C88.452 122.572 88.6021 122.185 89.0914 122.523C90.2467 123.32 91.5437 123.906 92.6946 124.89C90.2768 126.582 87.6899 127.926 85.5345 130.004C85.4006 130.044 85.3435 130.044 85.2151 129.996Z" fill="#F2ECE1"/>
<path d="M112.106 37.8239C112.406 38.8864 112.269 39.8927 112.197 40.8888C111.964 44.1097 112.036 47.3083 112.729 50.4777C112.808 50.8393 113.03 51.3495 112.586 51.5578C112.164 51.7559 112.038 51.2201 111.753 50.9107C111.485 50.8559 111.416 50.7218 111.426 50.4632C109.773 46.403 110.277 42.3509 111.061 38.2868C111.125 37.9526 111.268 37.7817 111.703 37.7598C111.896 37.6972 111.989 37.7037 112.106 37.8239Z" fill="#F2ECE1"/>
<path d="M141.474 37.6313C142.366 38.6753 142.275 39.9788 142.422 41.1898C142.789 44.203 142.966 47.2262 141.581 50.0808C141.293 50.6755 141.003 51.7084 140.362 51.4957C139.679 51.269 140.297 50.3589 140.422 49.7964C141.211 46.2458 141.138 42.6771 140.821 39.0894C140.774 38.5638 140.437 37.8169 141.474 37.6313Z" fill="#EEEAE0"/>
<path d="M121.307 33.2624C121.742 32.2119 122.139 31.2496 122.212 30.1871C122.236 29.8346 122.036 29.3109 122.716 29.3194C123.256 29.3262 123.534 29.6671 123.622 30.1275C123.757 30.8447 123.68 31.5561 123.487 32.272C122.724 35.1083 121.1 37.5214 119.715 40.0526C119.527 40.395 119.309 40.7204 119.03 41.1749C118.88 38.2107 120.196 35.8142 121.307 33.2624Z" fill="#EBE6DD"/>
<path d="M131.351 32.2709C131.96 34.4152 133.048 36.3561 133.529 38.5143C133.711 39.3318 133.964 40.1377 133.822 41.157C132.013 38.0182 130.012 35.1362 129.381 31.6034C129.31 31.2028 129.257 30.8186 129.371 30.4151C129.518 29.8916 129.693 29.3328 130.336 29.3753C131.02 29.4205 130.66 30.062 130.769 30.4289C130.941 31.003 131.05 31.5959 131.252 32.2448C131.318 32.3088 131.378 32.2287 131.351 32.2709Z" fill="#EBE6DD"/>
<path d="M110.023 59.0853C111.714 62.1138 114.036 64.5536 116.425 66.9299C116.122 67.2963 115.868 67.1388 115.633 67.008C112.071 65.0262 109.442 62.1979 107.862 58.4231C107.656 57.9318 107.403 57.4011 108.318 57.1834C109.673 57.1328 109.698 58.2049 110.023 59.0853Z" fill="#EBE6DD"/>
<path d="M109.5 49.1764C109.538 49.6828 109.616 50.1063 109.756 50.5982C110.056 50.8101 110.095 51.0251 110.005 51.3571C110 51.5396 110.026 51.6403 110.094 51.8084C110.454 53.6643 111.404 55.2285 111.936 56.9413C112.167 57.686 112.51 58.4071 112.46 59.409C111.688 58.772 111.287 58.0403 110.717 57.3462C110.603 57.3048 110.559 57.3132 110.55 57.2637C109.046 54.6511 108.059 51.9162 107.904 48.9169C107.869 48.2481 107.846 47.5268 108.998 47.8186C109.123 48.0373 109.148 48.2285 109.225 48.4705C109.606 48.6015 109.588 48.8402 109.5 49.1764Z" fill="#EEEAE0"/>
<path d="M143.744 48.2346C143.88 47.7057 144.174 47.6905 144.512 47.84C144.896 48.0098 144.975 48.3436 144.987 48.7339C145.023 49.9534 144.796 51.1373 144.497 52.3056C143.903 54.6306 142.888 56.7577 141.38 58.6346C141.136 58.9371 140.936 59.321 140.37 59.3548C141.365 55.6163 143.117 52.1434 143.744 48.2346Z" fill="#EBE6DD"/>
<path d="M50.4468 111.422C49.6938 113.395 48.4418 115.098 47.7895 117.096C47.3062 118.576 46.635 119.977 45.8671 121.393C44.9318 117.905 46.7948 113.673 50.2129 111.501C50.3176 111.423 50.3574 111.397 50.4468 111.422Z" fill="#EBE6DD"/>
<path d="M131.243 96.1346C130.969 95.9689 130.765 95.9676 130.517 96.0662C130.226 96.1815 130.063 96.7772 129.655 96.3943C129.296 96.0573 129.706 95.6588 129.734 95.1897C130.808 94.0933 132.148 93.6971 133.519 93.3794C133.911 93.2886 134.389 93.2213 134.559 93.6951C134.707 94.1035 134.326 94.3442 134.017 94.5305C133.125 95.0676 132.222 95.5866 131.243 96.1346Z" fill="#EBE6DD"/>
<path d="M117.759 47.499C118.114 48.1383 117.953 48.6512 117.514 49.296C115.738 51.9045 114.786 54.8041 114.823 58.0819C114.276 54.2217 115.654 50.7922 117.759 47.499Z" fill="#F1EEE3"/>
<path d="M128.456 37.2107C128.648 37.0634 128.886 36.9872 129.209 36.8729C129.371 36.8566 129.484 36.8537 129.517 36.904C129.84 37.3853 130.483 38.0866 130.098 38.4197C129.635 38.8199 129.292 37.8906 128.841 37.6225C128.707 37.5433 128.614 37.3973 128.456 37.2107Z" fill="#EBE6DD"/>
<path d="M118.696 55.0795C121.188 51.129 124.536 49.4777 128.332 50.3027C134.827 51.7144 137.575 60.1361 133.205 65.2189C132.333 66.2334 131.314 67.0795 130.221 67.9611C130.125 68.1881 129.986 68.2199 129.799 68.3043C129.751 68.3581 129.734 68.3549 129.732 68.3637C128.965 68.9407 128.199 69.5088 127.321 70.1597C127.321 69.6575 127.341 69.2399 127.316 68.8251C127.287 68.3586 127.144 67.9481 126.587 67.8779C126.001 67.804 125.801 68.231 125.7 68.6622C125.593 69.1223 125.596 69.608 125.536 70.2422C123.241 68.1257 120.546 66.5749 118.944 63.7701C118.841 63.5894 118.805 63.4525 118.71 63.2747C117.894 62.6096 117.863 61.6328 117.715 60.823C117.45 59.3721 117.556 57.8684 118.085 56.357C118.169 56.2896 118.132 56.2571 118.145 56.2778C118.286 55.8982 118.082 55.3625 118.696 55.0795Z" fill="#100F27"/>
<path d="M118.072 56.2974C117.607 58.5901 117.735 60.8444 118.636 63.141C117.42 63.2009 117.817 62.047 117.632 61.4806C117.072 59.7656 117.339 57.9979 118.072 56.2974Z" fill="#F1EEE3"/>
<path d="M67.3413 117.428C68.1153 117.681 68.8727 117.955 68.8532 118.836C68.8339 119.705 68.1525 120.137 67.4125 120.442C66.6721 120.746 65.9282 121.036 64.9229 120.918C65.4811 119.702 65.9624 118.538 66.7251 117.422C66.9414 117.388 67.1009 117.409 67.3413 117.428Z" fill="#EBE6DD"/>
<path d="M131.719 55.9657C133.375 58.7616 133.27 61.4046 131.469 63.6873C129.897 65.6811 127.181 66.4826 124.58 65.7208C121.896 64.9344 120.169 62.3285 120.257 59.1947C120.332 56.5017 122.444 53.9373 125.022 53.3308C127.838 52.6681 129.989 53.6453 131.719 55.9657Z" fill="#88E1E7"/>
<path d="M69.9351 125.323C71.325 125.02 72.5027 124.326 73.5685 123.455C74.0452 123.065 74.2715 122.943 74.5881 123.629C75.369 125.322 76.3592 126.893 77.7282 128.186C78.198 128.629 78.0264 128.848 77.5711 129.179C72.8157 132.644 67.6635 133.371 62.1232 131.465C61.7101 131.323 61.34 131.056 60.9504 130.846C60.4284 130.564 60.2469 130.202 60.6797 129.695C60.7048 129.665 60.7131 129.622 60.7289 129.584C61.6845 127.338 62.8466 125.576 65.8366 126.24C67.145 126.531 68.5375 125.94 69.9035 125.423C69.9688 125.361 69.9013 125.288 69.9351 125.323Z" fill="#F8F1DD"/>
<path d="M76.8937 115.797C77.0896 115.743 77.2651 115.796 77.5313 115.872C78.9318 115.894 79.6826 116.931 80.6035 117.599C80.5406 117.663 80.5549 117.694 80.5719 117.694C81.4267 118.244 82.2542 118.812 83.1073 119.337C83.4482 119.548 83.6914 119.711 83.5092 120.175C82.6604 122.334 81.6731 124.423 80.5503 126.497C77.1795 123.623 76.2188 120.04 76.8937 115.797Z" fill="#F7F1DE"/>
<path d="M124.983 62.491C123.414 61.2819 122.985 59.8252 123.694 58.3383C124.31 57.0453 126.013 56.3335 127.497 56.7478C128.869 57.1308 129.871 58.5893 129.771 60.0567C129.623 62.2042 127.348 63.4032 124.983 62.491Z" fill="#100F27"/>
</g>
<defs>
<clipPath id="clip0_1621_41">
<rect width="859.75" height="181" fill="white"/>
</clipPath>
</defs>
</svg>
