<svg width="171" height="36" viewBox="0 0 171 36" fill="none" xmlns="http://www.w3.org/2000/svg">
<g clip-path="url(#clip0_1569_2)">
<path fill-rule="evenodd" clip-rule="evenodd" d="M27.8333 18C27.8333 25.0877 22.0877 30.8333 15 30.8333C7.91234 30.8333 2.16666 25.0877 2.16666 18C2.16666 10.9123 7.91234 5.16666 15 5.16666C22.0877 5.16666 27.8333 10.9123 27.8333 18ZM30 18C30 26.2843 23.2843 33 15 33C6.71573 33 0 26.2843 0 18C0 9.71573 6.71573 3 15 3C23.2843 3 30 9.71573 30 18ZM23.2759 11.2759C23.2759 12.1329 22.5812 12.8276 21.7242 12.8276C20.8672 12.8276 20.1725 12.1329 20.1725 11.2759C20.1725 10.4189 20.8672 9.72418 21.7242 9.72418C22.5812 9.72418 23.2759 10.4189 23.2759 11.2759ZM10.4879 19.209C11.1556 21.7009 13.717 23.1797 16.2089 22.512C18.7008 21.8443 20.1796 19.2829 19.5119 16.791C18.8442 14.2991 16.2828 12.8203 13.7909 13.488C11.299 14.1557 9.82015 16.7171 10.4879 19.209ZM8.39503 19.7698C9.37244 23.4175 13.1219 25.5823 16.7696 24.6049C20.4174 23.6274 22.5821 19.878 21.6047 16.2302C20.6273 12.5825 16.8779 10.4177 13.2301 11.3952C9.58236 12.3726 7.41762 16.122 8.39503 19.7698Z" fill="url(#paint0_linear_1569_2)"/>
<path d="M58.58 9.852V28H54.94V16.196L50.078 28H47.322L42.434 16.196V28H38.794V9.852H42.928L48.7 23.346L54.472 9.852H58.58ZM64.0248 11.88C63.3834 11.88 62.8461 11.6807 62.4128 11.282C61.9968 10.866 61.7888 10.3547 61.7888 9.748C61.7888 9.14133 61.9968 8.63867 62.4128 8.24C62.8461 7.824 63.3834 7.616 64.0248 7.616C64.6661 7.616 65.1948 7.824 65.6108 8.24C66.0441 8.63867 66.2608 9.14133 66.2608 9.748C66.2608 10.3547 66.0441 10.866 65.6108 11.282C65.1948 11.6807 64.6661 11.88 64.0248 11.88ZM65.8188 13.596V28H62.1788V13.596H65.8188ZM77.3971 13.388C79.1131 13.388 80.4998 13.934 81.5571 15.026C82.6144 16.1007 83.1431 17.6087 83.1431 19.55V28H79.5031V20.044C79.5031 18.9 79.2171 18.0247 78.6451 17.418C78.0731 16.794 77.2931 16.482 76.3051 16.482C75.2998 16.482 74.5024 16.794 73.9131 17.418C73.3411 18.0247 73.0551 18.9 73.0551 20.044V28H69.4151V13.596H73.0551V15.39C73.5404 14.766 74.1558 14.2807 74.9011 13.934C75.6638 13.57 76.4958 13.388 77.3971 13.388ZM88.4505 11.88C87.8092 11.88 87.2719 11.6807 86.8385 11.282C86.4225 10.866 86.2145 10.3547 86.2145 9.748C86.2145 9.14133 86.4225 8.63867 86.8385 8.24C87.2719 7.824 87.8092 7.616 88.4505 7.616C89.0919 7.616 89.6205 7.824 90.0365 8.24C90.4699 8.63867 90.6865 9.14133 90.6865 9.748C90.6865 10.3547 90.4699 10.866 90.0365 11.282C89.6205 11.6807 89.0919 11.88 88.4505 11.88ZM90.2445 13.596V28H86.6045V13.596H90.2445ZM99.3529 28.234C98.1742 28.234 97.1169 28.026 96.1809 27.61C95.2449 27.1767 94.4995 26.596 93.9449 25.868C93.4075 25.14 93.1129 24.334 93.0609 23.45H96.7269C96.7962 24.0047 97.0649 24.464 97.5329 24.828C98.0182 25.192 98.6162 25.374 99.3269 25.374C100.02 25.374 100.558 25.2353 100.939 24.958C101.338 24.6807 101.537 24.3253 101.537 23.892C101.537 23.424 101.294 23.0773 100.809 22.852C100.341 22.6093 99.5869 22.3493 98.5469 22.072C97.4722 21.812 96.5882 21.5433 95.8949 21.266C95.2189 20.9887 94.6295 20.564 94.1269 19.992C93.6415 19.42 93.3989 18.6487 93.3989 17.678C93.3989 16.8807 93.6242 16.1527 94.0749 15.494C94.5429 14.8353 95.2015 14.3153 96.0509 13.934C96.9175 13.5527 97.9315 13.362 99.0929 13.362C100.809 13.362 102.178 13.7953 103.201 14.662C104.224 15.5113 104.787 16.664 104.891 18.12H101.407C101.355 17.548 101.112 17.0973 100.679 16.768C100.263 16.4213 99.6995 16.248 98.9889 16.248C98.3302 16.248 97.8189 16.3693 97.4549 16.612C97.1082 16.8547 96.9349 17.1927 96.9349 17.626C96.9349 18.1113 97.1775 18.484 97.6629 18.744C98.1482 18.9867 98.9022 19.238 99.9249 19.498C100.965 19.758 101.823 20.0267 102.499 20.304C103.175 20.5813 103.756 21.0147 104.241 21.604C104.744 22.176 105.004 22.9387 105.021 23.892C105.021 24.724 104.787 25.4693 104.319 26.128C103.868 26.7867 103.21 27.3067 102.343 27.688C101.494 28.052 100.497 28.234 99.3529 28.234ZM129.258 9.852V28H125.618V20.278H117.844V28H114.204V9.852H117.844V17.314H125.618V9.852H129.258ZM146.439 13.596V28H142.773V26.18C142.305 26.804 141.69 27.298 140.927 27.662C140.182 28.0087 139.367 28.182 138.483 28.182C137.356 28.182 136.36 27.948 135.493 27.48C134.626 26.9947 133.942 26.2927 133.439 25.374C132.954 24.438 132.711 23.3287 132.711 22.046V13.596H136.351V21.526C136.351 22.67 136.637 23.554 137.209 24.178C137.781 24.7847 138.561 25.088 139.549 25.088C140.554 25.088 141.343 24.7847 141.915 24.178C142.487 23.554 142.773 22.67 142.773 21.526V13.596H146.439ZM153.67 15.702C154.138 15.0087 154.78 14.4453 155.594 14.012C156.426 13.5787 157.371 13.362 158.428 13.362C159.659 13.362 160.768 13.6653 161.756 14.272C162.762 14.8787 163.55 15.7453 164.122 16.872C164.712 17.9813 165.006 19.2727 165.006 20.746C165.006 22.2193 164.712 23.528 164.122 24.672C163.55 25.7987 162.762 26.674 161.756 27.298C160.768 27.922 159.659 28.234 158.428 28.234C157.354 28.234 156.409 28.026 155.594 27.61C154.797 27.1767 154.156 26.622 153.67 25.946V28H150.03V8.76H153.67V15.702ZM161.288 20.746C161.288 19.8793 161.106 19.134 160.742 18.51C160.396 17.8687 159.928 17.3833 159.338 17.054C158.766 16.7247 158.142 16.56 157.466 16.56C156.808 16.56 156.184 16.7333 155.594 17.08C155.022 17.4093 154.554 17.8947 154.19 18.536C153.844 19.1773 153.67 19.9313 153.67 20.798C153.67 21.6647 153.844 22.4187 154.19 23.06C154.554 23.7013 155.022 24.1953 155.594 24.542C156.184 24.8713 156.808 25.036 157.466 25.036C158.142 25.036 158.766 24.8627 159.338 24.516C159.928 24.1693 160.396 23.6753 160.742 23.034C161.106 22.3927 161.288 21.63 161.288 20.746Z" fill="white"/>
</g>
<defs>
<linearGradient id="paint0_linear_1569_2" x1="15" y1="3" x2="15" y2="33" gradientUnits="userSpaceOnUse">
<stop stop-color="#877EFF"/>
<stop offset="0.461458" stop-color="#685DFF"/>
<stop offset="1" stop-color="#3121FF"/>
</linearGradient>
<clipPath id="clip0_1569_2">
<rect width="171" height="36" fill="white"/>
</clipPath>
</defs>
</svg>
