<?xml version="1.0" standalone="no"?>
<!DOCTYPE svg PUBLIC "-//W3C//DTD SVG 20010904//EN"
 "http://www.w3.org/TR/2001/REC-SVG-20010904/DTD/svg10.dtd">
<svg version="1.0" xmlns="http://www.w3.org/2000/svg"
 width="700.000000pt" height="700.000000pt" viewBox="0 0 700.000000 700.000000"
 preserveAspectRatio="xMidYMid meet">
<metadata>
Created by potrace 1.14, written by Peter Selinger 2001-2017
</metadata>
<g transform="translate(0.000000,700.000000) scale(0.100000,-0.100000)"
fill="#000000" stroke="none">
<path d="M3370 6615 c-106 -30 -247 -128 -270 -189 -10 -26 5 -56 28 -56 10 0
35 18 57 40 157 161 378 63 378 -168 -1 -105 -26 -199 -86 -318 -32 -64 -49
-78 -84 -70 -102 22 -137 27 -213 27 -173 -1 -331 -50 -476 -149 -254 -172
-406 -464 -407 -782 -1 -121 5 -164 31 -241 52 -149 150 -241 271 -256 94 -11
194 46 236 132 8 19 17 57 20 85 8 93 -60 192 -154 225 -75 25 -134 16 -199
-32 -18 -14 -36 -23 -39 -19 -8 7 -8 184 -1 232 20 123 94 253 208 364 95 93
208 161 320 194 74 22 100 24 205 21 66 -1 129 -5 140 -8 11 -3 24 -6 28 -6 4
-1 -3 -16 -18 -35 -20 -26 -24 -40 -19 -67 4 -19 10 -38 14 -44 4 -5 11 -21
15 -35 7 -23 117 -302 452 -1145 74 -187 140 -353 147 -370 22 -51 36 -84 121
-295 46 -113 102 -250 125 -305 22 -55 95 -233 161 -395 67 -162 132 -320 145
-350 27 -61 33 -65 164 -121 93 -39 241 -113 292 -145 71 -45 72 -50 -56 273
-42 106 -76 203 -76 216 0 13 -13 44 -30 70 -16 25 -82 176 -146 334 -64 158
-188 464 -275 678 -170 415 -171 417 -219 540 -17 44 -35 89 -40 100 -11 24
-111 269 -271 665 -66 162 -124 304 -129 315 -33 70 -90 223 -90 241 0 11 23
47 50 78 160 183 216 339 186 520 -16 95 -91 182 -202 233 -73 33 -209 41
-294 18z"/>
<path d="M4882 6011 c-9 -5 -15 -34 -18 -77 -4 -69 -11 -126 -19 -154 -2 -8
-6 -26 -9 -40 -7 -39 -33 -107 -66 -172 -17 -33 -29 -65 -27 -72 6 -17 100 86
121 132 11 23 22 42 25 42 3 0 18 -19 33 -43 46 -73 95 -123 107 -111 9 8 6
18 -9 37 -43 55 -88 227 -94 360 -3 81 -18 114 -44 98z"/>
<path d="M4567 5925 c-13 -12 -13 -21 -2 -57 19 -66 15 -95 -40 -298 -16 -59
-25 -116 -24 -152 2 -66 14 -84 22 -35 3 18 24 80 47 139 51 132 66 194 69
293 2 74 1 79 -25 102 -32 27 -29 27 -47 8z"/>
<path d="M5156 5909 c-11 -16 -14 -45 -11 -123 3 -108 16 -156 80 -307 19 -46
35 -89 35 -96 0 -7 5 -13 11 -13 8 0 9 20 5 63 -7 79 -10 90 -45 205 -27 88
-33 172 -17 226 7 23 11 47 8 54 -6 20 -50 14 -66 -9z"/>
<path d="M4735 5859 c-4 -5 -9 -25 -12 -42 -2 -18 -20 -70 -40 -117 -61 -147
-100 -292 -74 -276 12 8 112 186 141 251 27 62 38 158 20 180 -15 18 -26 19
-35 4z"/>
<path d="M5020 5850 c-19 -19 -21 -28 -15 -68 13 -86 101 -280 156 -345 l19
-22 -6 40 c-6 39 -20 95 -31 125 -3 8 -7 20 -9 25 -1 6 -19 52 -38 104 -20 51
-36 103 -36 115 0 11 -4 27 -9 35 -7 11 -13 9 -31 -9z"/>
<path d="M4424 5782 c-11 -7 -24 -68 -41 -192 -5 -30 -8 -111 -8 -180 0 -111
3 -130 24 -173 13 -26 25 -46 27 -45 1 2 4 61 5 132 1 70 6 149 9 174 10 65
22 169 25 219 2 44 -20 79 -41 65z"/>
<path d="M5325 5770 c-15 -17 -17 -30 -12 -92 7 -71 11 -99 23 -155 3 -16 8
-93 10 -173 3 -80 6 -152 8 -160 1 -8 15 10 31 40 42 83 41 212 -3 459 -9 52
-22 96 -28 98 -6 2 -19 -6 -29 -17z"/>
<path d="M4302 5528 c-34 -44 -40 -354 -7 -442 23 -64 44 -89 62 -75 7 6 10
15 8 20 -16 26 -31 213 -28 352 3 131 1 157 -10 157 -8 0 -19 -6 -25 -12z"/>
<path d="M5446 5531 c-3 -4 -3 -19 0 -32 7 -36 8 -277 0 -334 -3 -28 -10 -66
-16 -85 -14 -49 -12 -70 6 -70 18 0 57 83 71 152 17 80 6 288 -19 351 -10 26
-31 36 -42 18z"/>
<path d="M4849 5446 c-24 -23 -80 -71 -125 -108 -132 -109 -199 -198 -250
-333 -37 -99 -46 -179 -31 -275 29 -192 131 -324 387 -500 15 -10 30 -50 30
-77 0 -52 -12 -55 -65 -19 -28 18 -97 58 -155 88 -198 105 -302 158 -306 158
-7 0 23 -52 43 -75 30 -34 73 -60 219 -135 76 -40 146 -78 155 -86 8 -8 20
-14 25 -14 5 0 24 -13 43 -29 31 -26 34 -33 36 -89 1 -34 0 -62 -1 -62 -2 0
-34 21 -71 47 -77 52 -200 112 -286 139 -50 15 -60 16 -67 4 -5 -8 -6 -18 -3
-23 3 -5 65 -37 137 -73 153 -74 261 -163 275 -225 13 -59 4 -62 -60 -18 -67
45 -94 56 -158 62 -54 6 -71 0 -71 -22 0 -11 36 -33 108 -67 59 -29 128 -70
152 -92 43 -39 45 -42 45 -101 1 -34 0 -61 -2 -61 -4 0 -163 115 -199 145 -30
23 -63 32 -76 19 -16 -15 12 -46 105 -116 56 -42 117 -93 136 -112 32 -33 33
-37 35 -120 1 -47 0 -86 -2 -86 -2 0 -22 16 -45 35 -22 19 -49 35 -59 35 -17
0 -17 -2 -3 -37 9 -20 30 -55 49 -77 50 -62 59 -85 62 -155 1 -37 14 -96 30
-142 l28 -79 44 77 c49 84 97 149 149 200 43 41 42 47 -4 28 -62 -26 -111 -65
-143 -113 l-30 -45 -2 39 c-5 131 -3 147 13 185 25 54 90 114 187 172 60 35
79 52 75 63 -14 38 -150 -16 -226 -89 -22 -21 -42 -36 -45 -33 -12 13 -11 75
3 113 20 52 66 94 194 177 56 36 101 71 101 77 0 30 -149 -31 -238 -97 -53
-40 -57 -41 -64 -22 -15 40 3 98 44 135 29 27 165 98 219 114 32 10 39 17 37
33 -3 18 -10 21 -53 20 -58 -2 -136 -37 -202 -91 l-43 -34 -1 28 c0 15 -2 35
-4 45 -9 49 91 137 234 205 53 25 120 56 149 70 50 24 64 44 41 58 -14 9 -189
-50 -258 -87 -31 -17 -79 -48 -108 -69 l-52 -39 -3 38 c-4 50 10 92 41 120 14
12 101 61 193 108 179 91 257 143 282 186 25 42 3 42 -71 0 -37 -21 -129 -69
-203 -106 -74 -38 -159 -84 -187 -102 l-53 -34 0 41 c0 62 22 92 112 153 220
148 311 303 307 522 -4 211 -95 373 -304 538 -33 26 -81 67 -106 91 l-45 43
-45 -42z"/>
<path d="M4180 5139 c-11 -19 -7 -64 11 -148 18 -82 68 -185 114 -236 44 -49
45 -49 41 -20 -2 17 -20 72 -40 123 -33 85 -58 169 -70 232 -11 61 -38 84 -56
49z"/>
<path d="M5551 5093 c-7 -32 -37 -130 -67 -217 -30 -88 -52 -162 -49 -164 22
-22 122 151 150 258 31 117 29 180 -4 180 -14 0 -21 -14 -30 -57z"/>
<path d="M3216 5059 c-13 -30 -51 -112 -85 -183 -33 -70 -61 -130 -61 -132 0
-1 -17 -40 -39 -86 -21 -46 -49 -105 -61 -133 -12 -27 -41 -93 -65 -145 -23
-52 -82 -183 -130 -290 -48 -107 -96 -215 -107 -239 -11 -24 -17 -53 -14 -65
7 -27 112 -151 191 -226 l58 -54 19 24 c10 14 71 149 136 300 66 151 171 397
235 545 66 153 117 285 117 302 0 30 -142 408 -161 427 -5 6 -18 -12 -33 -45z"/>
<path d="M4171 4776 c-9 -10 -3 -29 24 -83 36 -70 54 -94 124 -168 45 -49 159
-127 173 -119 7 5 -76 104 -113 134 -23 19 -118 162 -128 193 -17 50 -56 72
-80 43z"/>
<path d="M5573 4773 c-18 -48 -126 -195 -201 -274 -46 -49 -79 -89 -73 -89 72
0 269 203 309 319 15 42 16 38 -8 51 -16 9 -22 7 -27 -7z"/>
<path d="M2352 4253 c-56 -14 -90 -33 -140 -75 -36 -30 -39 -40 -18 -57 11
-10 26 -6 67 15 103 52 245 60 342 19 40 -16 63 -12 77 16 9 15 4 22 -27 42
-80 50 -199 66 -301 40z"/>
<path d="M3597 4163 c-67 -71 -110 -229 -113 -413 -1 -74 -2 -141 -3 -147 -1
-8 -14 -13 -32 -13 -42 0 -170 -20 -194 -30 -11 -5 -51 -21 -90 -36 -76 -29
-145 -69 -145 -83 0 -14 107 -101 124 -101 9 0 39 11 66 25 54 27 172 62 237
69 47 5 59 -10 49 -62 -3 -15 -8 -49 -11 -75 -3 -26 -17 -78 -31 -115 -38
-100 -40 -117 -13 -136 31 -21 34 -21 68 14 61 64 107 197 114 325 l2 50 64
-3 c106 -5 284 -71 393 -146 45 -30 65 -25 76 18 13 46 -5 84 -67 144 -110
106 -267 157 -481 157 0 0 -6 36 -13 80 -19 120 -13 242 19 380 25 107 27 125
17 125 -5 0 -21 -12 -36 -27z"/>
<path d="M1850 3950 c-141 -38 -231 -96 -322 -210 -208 -260 -177 -685 62
-861 117 -87 306 -68 401 39 42 49 81 121 85 162 2 14 6 36 9 49 11 42 -49
160 -100 201 -64 51 -107 71 -169 79 -74 10 -147 -10 -219 -59 l-57 -39 6 27
c4 15 18 49 31 77 74 150 211 233 368 222 73 -5 82 -7 155 -40 98 -43 138 -79
355 -317 319 -349 504 -519 724 -664 130 -86 311 -186 337 -186 11 0 29 -9 38
-19 10 -10 56 -36 104 -57 48 -21 120 -55 159 -75 40 -21 97 -45 128 -53 30
-9 69 -25 87 -36 19 -10 65 -29 103 -41 39 -12 107 -38 151 -59 45 -21 97 -41
115 -45 82 -18 265 -133 350 -220 169 -174 212 -372 129 -609 -33 -97 -81
-175 -175 -284 -33 -39 -156 -128 -221 -160 -125 -62 -202 -82 -349 -87 -220
-8 -404 57 -549 195 -150 142 -211 291 -211 520 1 159 14 220 81 355 39 80
136 225 156 233 5 2 8 10 8 17 0 10 -7 10 -38 -1 -131 -45 -252 -120 -314
-196 -82 -100 -134 -255 -141 -418 -13 -321 136 -630 403 -831 91 -68 266
-146 370 -165 14 -3 31 -7 39 -9 62 -23 388 -22 453 0 7 2 27 6 43 8 17 3 65
14 109 27 385 108 678 400 788 786 27 95 32 303 9 394 -39 156 -124 307 -233
413 -150 144 -299 221 -828 427 -381 148 -663 294 -932 483 -248 174 -416 325
-683 612 -267 288 -391 380 -563 419 -88 20 -165 19 -252 -4z"/>
<path d="M5057 2792 c-16 -17 -14 -21 34 -68 86 -85 134 -166 173 -294 33
-111 35 -114 46 -85 15 40 19 119 8 169 -20 96 -93 210 -165 258 -54 37 -77
42 -96 20z"/>
<path d="M2265 2750 c-93 -21 -166 -92 -235 -230 -52 -103 -206 -467 -241
-570 -96 -280 -116 -482 -66 -680 54 -212 157 -363 341 -505 114 -87 231 -136
356 -150 63 -8 225 -8 255 -1 11 3 47 10 80 17 33 6 69 19 80 28 11 10 37 26
58 37 21 10 64 39 95 64 64 51 74 79 47 130 -9 17 -29 74 -46 127 -16 53 -31
99 -34 101 -2 2 -27 -15 -54 -40 -124 -107 -288 -151 -430 -113 -129 34 -226
109 -280 215 -87 171 -107 287 -77 457 28 158 89 318 381 998 22 52 24 63 12
78 -23 28 -176 52 -242 37z"/>
<path d="M1909 2663 c-44 -36 -63 -59 -93 -108 -27 -45 -52 -128 -50 -165 1
-14 2 -38 3 -55 1 -28 2 -28 14 -10 7 11 28 56 46 100 18 44 53 120 77 169 25
49 43 90 41 93 -3 2 -20 -9 -38 -24z"/>
<path d="M2969 2488 c-7 -157 32 -275 118 -354 l26 -24 24 41 c30 54 93 196
93 212 0 7 -21 25 -48 42 -26 16 -64 45 -84 63 -33 30 -82 52 -115 52 -8 0
-14 -14 -14 -32z"/>
<path d="M2562 2428 c-11 -18 -27 -49 -35 -70 l-15 -36 35 4 c38 5 94 30 105
48 12 17 9 53 -5 64 -6 6 -24 13 -38 17 -22 6 -30 1 -47 -27z"/>
<path d="M3416 2248 c-9 -12 -16 -26 -16 -29 0 -4 -20 -50 -45 -103 -24 -53
-47 -107 -51 -121 -6 -24 -2 -23 57 22 35 26 99 71 141 98 43 28 78 53 78 57
0 3 -24 21 -52 39 -29 17 -63 38 -75 46 -19 13 -23 12 -37 -9z"/>
<path d="M2829 2214 c-32 -24 -50 -33 -124 -64 -53 -22 -110 -37 -130 -34
-118 17 -169 -8 -215 -106 l-24 -52 24 -19 c60 -45 225 -72 350 -56 89 11 220
66 282 117 l30 25 -41 45 c-22 25 -54 71 -71 102 -17 32 -34 60 -39 62 -4 3
-23 -6 -42 -20z"/>
<path d="M3999 1667 c-151 -51 -243 -217 -203 -370 31 -118 119 -206 234 -233
52 -11 79 -11 136 1 145 33 241 166 232 322 -8 122 -65 210 -171 265 -50 25
-172 34 -228 15z"/>
</g>
</svg>
